<?xml version="1.0" standalone="no"?>
<!DOCTYPE svg PUBLIC "-//W3C//DTD SVG 1.1//EN"
  "http://www.w3.org/Graphics/SVG/1.1/DTD/svg11.dtd">
<svg version="1.1" xmlns="http://www.w3.org/2000/svg" xmlns:xlink="http://www.w3.org/1999/xlink" width="1792" height="1063" viewBox="-992 -32 1792 1063" id="ccdiagram"><filter id="grayscale"><feColorMatrix type="matrix" values="0.3333 0.3333 0.3333 0 0 0.3333 0.3333 0.3333 0 0 0.3333 0.3333 0.3333 0 0 0 0 0 1 0"></feColorMatrix></filter><defs><style type="text/css">@import url('https://fonts.googleapis.com/css?family=Open+Sans:400,700|Inconsolata:400');</style></defs><g><g style="pointer-events: none;"><g><pattern id="gridPatternMinor" x="0" y="37" width="128" height="74" patternUnits="userSpaceOnUse"><path d="M 0 0 L 128 74" stroke="#eee" stroke-width="1"></path><path d="M 128 0 L 0 74" stroke="#eee" stroke-width="1"></path></pattern><polygon points="0 0, 768 444, -192 999, -960 555" fill="url(#gridPatternMinor)"></polygon></g><polygon points="-960 555, -960 565, -192 1009, -192 999" stroke-linejoin="round" stroke="#54626f" stroke-width="1" fill="#f9f9f9"></polygon><polygon points="-192 1009, 768 454, 768 444, -192 999" stroke-linejoin="round" stroke="#54626f" stroke-width="1" fill="#e2e2e2"></polygon></g><g pointer-events="auto"><g opacity="1"><g><g><polygon points="64 37, 128 74, 128 74, 256 148, 256 185, -160 426, -224 426, -416 315, -416 278, 0 37" fill="#ffffff" stroke-width="2" stroke="#818181"></polygon><polygon points="32 56, 96 93, 224 167, -192 407, -384 296" fill="#e6e7e8" stroke-width="0" stroke="#818181"></polygon></g></g></g></g><g style="pointer-events: none;"><g><pattern id="gridPatternMajor" x="0" y="37" width="128" height="74" patternUnits="userSpaceOnUse"><path d="M 64 0 L 128 37 64 74 0 37 z" stroke="#54626f" stroke-width="1" fill="none"></path></pattern><polygon points="0 0, 768 444, -192 999, -960 555" fill="url(#gridPatternMajor)"></polygon></g></g><g pointer-events="auto"></g><g></g><g pointer-events="auto"></g><g></g><g pointer-events="auto"></g><g pointer-events="none"></g><g pointer-events="auto"><g><g cursor="cell"><line x1="64" y1="555" x2="319" y2="529" stroke="red" stroke-width="10" opacity="0"></line><line x1="64" y1="555" x2="319" y2="529" stroke="#4286c5" stroke-width="4" stroke-linecap="round"></line><polygon points="336 527, 303 522, 314 529, 308 539, 336 527" stroke-linejoin="round" fill="#4286c5" stroke="#4286c5" stroke-width="1"></polygon></g></g><g><g cursor="cell"><line x1="-576" y1="518" x2="-364" y2="395" stroke="red" stroke-width="10" opacity="0"></line><line x1="-576" y1="518" x2="-364" y2="395" stroke="#4286c5" stroke-width="4" stroke-linecap="round"></line><polygon points="-352 389, -384 395, -368 398, -364 407, -352 389" stroke-linejoin="round" fill="#4286c5" stroke="#4286c5" stroke-width="1"></polygon></g></g><g><g cursor="cell"><line x1="-576" y1="666" x2="-743" y2="569" stroke="red" stroke-width="10" opacity="0"></line><line x1="-576" y1="666" x2="-743" y2="569" stroke="#4286c5" stroke-width="4" stroke-linecap="round"></line><polygon points="-755 562, -744 581, -740 571, -723 569, -755 562" stroke-linejoin="round" fill="#4286c5" stroke="#4286c5" stroke-width="1"></polygon></g></g><g><g cursor="cell"><line x1="64" y1="555" x2="244" y2="451" stroke="red" stroke-width="10" opacity="0"></line><line x1="64" y1="555" x2="244" y2="451" stroke="#4286c5" stroke-width="4" stroke-linecap="round"></line><polygon points="256 444, 224 451, 240 453, 244 462, 256 444" stroke-linejoin="round" fill="#4286c5" stroke="#4286c5" stroke-width="1"></polygon></g></g><g><g cursor="cell"><line x1="64" y1="555" x2="384" y2="476" stroke="red" stroke-width="10" opacity="0"></line><line x1="64" y1="555" x2="384" y2="476" stroke="#4286c5" stroke-width="4" stroke-linecap="round"></line><polygon points="400 472, 366 471, 380 477, 377 486, 400 472" stroke-linejoin="round" fill="#4286c5" stroke="#4286c5" stroke-width="1"></polygon></g></g><g><g cursor="cell"><line x1="-304" y1="805" x2="-192" y2="740" stroke="red" stroke-width="10" opacity="0"></line><line x1="-304" y1="805" x2="-192" y2="740" stroke="#4286c5" stroke-width="4" stroke-linecap="round"></line></g></g><g><g cursor="cell"><line x1="-224" y1="722" x2="64" y2="555" stroke="red" stroke-width="10" opacity="0"></line><line x1="-224" y1="722" x2="64" y2="555" stroke="#4286c5" stroke-width="4" stroke-linecap="round"></line></g></g><g><g cursor="cell"><line x1="-224" y1="722" x2="-192" y2="740" stroke="red" stroke-width="10" opacity="0"></line><line x1="-224" y1="722" x2="-192" y2="740" stroke="#4286c5" stroke-width="4" stroke-linecap="round"></line></g></g><g><g cursor="cell"><line x1="-304" y1="805" x2="-284" y2="816" stroke="red" stroke-width="10" opacity="0"></line><line x1="-304" y1="805" x2="-284" y2="816" stroke="#4286c5" stroke-width="4" stroke-linecap="round"></line><polygon points="-272 823, -284 805, -288 814, -304 817, -272 823" stroke-linejoin="round" fill="#4286c5" stroke="#4286c5" stroke-width="1"></polygon></g></g><g><g cursor="cell"><line x1="-480" y1="611" x2="-576" y2="666" stroke="red" stroke-width="10" opacity="0"></line><line x1="-480" y1="611" x2="-576" y2="666" stroke="#4286c5" stroke-width="4" stroke-linecap="round"></line></g></g><g><g cursor="cell"><line x1="64" y1="555" x2="242" y2="624" stroke="red" stroke-width="10" opacity="0"></line><line x1="64" y1="555" x2="242" y2="624" stroke="#4286c5" stroke-width="4" stroke-linecap="round"></line><polygon points="256 629, 238 612, 238 622, 222 626, 256 629" stroke-linejoin="round" fill="#4286c5" stroke="#4286c5" stroke-width="1"></polygon></g></g><g><g cursor="cell"><line x1="-416" y1="611" x2="-224" y2="722" stroke="red" stroke-width="10" opacity="0"></line><line x1="-416" y1="611" x2="-224" y2="722" stroke="#4286c5" stroke-width="4" stroke-linecap="round"></line></g></g><g><g cursor="cell"><line x1="-512" y1="555" x2="-576" y2="518" stroke="red" stroke-width="10" opacity="0"></line><line x1="-512" y1="555" x2="-576" y2="518" stroke="#4286c5" stroke-width="4" stroke-linecap="round"></line></g></g><g><g cursor="cell"><line x1="64" y1="555" x2="94" y2="435" stroke="red" stroke-width="10" opacity="0"></line><line x1="64" y1="555" x2="94" y2="435" stroke="#4286c5" stroke-width="4" stroke-linecap="round"></line><polygon points="96 426, 77 442, 93 438, 106 444, 96 426" stroke-linejoin="round" fill="#4286c5" stroke="#4286c5" stroke-width="1"></polygon></g></g></g><g pointer-events="auto"><g opacity="1"><g id="c50d1d93-f8ff-4db1-8fe3-f41b83666e1d" transform="translate(0 0)"><g><polygon points="64 74, 128 111, 64 148, 0 111" fill="#ececed"></polygon><polygon points="0 148, 64 185, 64 148, 0 111" fill="#d2d2d4" stroke="#83838a"></polygon><polygon points="64 185, 128 148, 128 111, 64 148" fill="#b8b8bb" stroke="#83838a"></polygon><polygon points="64 74, 0 111, 0 148, 64 185, 128 148, 128 111" fill="none" stroke="#000000" stroke-width="2"></polygon></g></g></g><g opacity="1"><g id="049c384e-0b52-4788-810c-a3f26e872712" transform="translate(0 0)"><g><polygon points="432 379, 496 416, 432 453, 368 416" fill="#ececed"></polygon><polygon points="368 453, 432 490, 432 453, 368 416" fill="#d2d2d4" stroke="#83838a"></polygon><polygon points="432 490, 496 453, 496 416, 432 453" fill="#b8b8bb" stroke="#83838a"></polygon><polygon points="432 379, 368 416, 368 453, 432 490, 496 453, 496 416" fill="none" stroke="#000000" stroke-width="2"></polygon></g></g></g><g opacity="1"><g id="7bdd8249-0449-4f44-8965-35b023ced4ed" transform="translate(0 0)"><g><polygon points="-64 148, 0 185, -64 222, -128 185" fill="#ececed"></polygon><polygon points="-128 222, -64 259, -64 222, -128 185" fill="#d2d2d4" stroke="#83838a"></polygon><polygon points="-64 259, 0 222, 0 185, -64 222" fill="#b8b8bb" stroke="#83838a"></polygon><polygon points="-64 148, -128 185, -128 222, -64 259, 0 222, 0 185" fill="none" stroke="#000000" stroke-width="2"></polygon></g></g></g><g opacity="1"><g id="fa3062bc-7590-4366-8a47-41538cb69b97" transform="translate(0 0)"><g><polygon points="288 352, 352 389, 288 426, 224 389" fill="#ececed"></polygon><polygon points="224 426, 288 463, 288 426, 224 389" fill="#d2d2d4" stroke="#83838a"></polygon><polygon points="288 463, 352 426, 352 389, 288 426" fill="#b8b8bb" stroke="#83838a"></polygon><polygon points="288 352, 224 389, 224 426, 288 463, 352 426, 352 389" fill="none" stroke="#000000" stroke-width="2"></polygon></g></g></g><g opacity="1"><g id="78654d54-b441-45ac-9f30-6bcc7043a3aa" transform="translate(0 0)"><g><polygon points="128 333, 192 370, 128 407, 64 370" fill="#ececed"></polygon><polygon points="64 407, 128 444, 128 407, 64 370" fill="#d2d2d4" stroke="#83838a"></polygon><polygon points="128 444, 192 407, 192 370, 128 407" fill="#b8b8bb" stroke="#83838a"></polygon><polygon points="128 333, 64 370, 64 407, 128 444, 192 407, 192 370" fill="none" stroke="#000000" stroke-width="2"></polygon></g></g></g><g opacity="1"><g id="595a4a2c-22f5-4751-a291-32bcb59449dd" transform="translate(0 0)"><g><polygon points="400 490, 464 527, 400 564, 336 527" fill="#ececed"></polygon><polygon points="336 564, 400 601, 400 564, 336 527" fill="#d2d2d4" stroke="#83838a"></polygon><polygon points="400 601, 464 564, 464 527, 400 564" fill="#b8b8bb" stroke="#83838a"></polygon><polygon points="400 490, 336 527, 336 564, 400 601, 464 564, 464 527" fill="none" stroke="#000000" stroke-width="2"></polygon></g></g></g><g opacity="1"><g id="686350f5-da00-49c9-969e-de0db4f6f4bf" transform="translate(0 0)"><g><polygon points="-192 222, -128 259, -192 296, -256 259" fill="#ececed"></polygon><polygon points="-256 296, -192 333, -192 296, -256 259" fill="#d2d2d4" stroke="#83838a"></polygon><polygon points="-192 333, -128 296, -128 259, -192 296" fill="#b8b8bb" stroke="#83838a"></polygon><polygon points="-192 222, -256 259, -256 296, -192 333, -128 296, -128 259" fill="none" stroke="#000000" stroke-width="2"></polygon></g></g></g><g opacity="1"><g id="b9625304-60ff-4138-8718-80e6d081e6e4" transform="translate(0 0)"><g><polygon points="320 592, 384 629, 320 666, 256 629" fill="#ececed"></polygon><polygon points="256 666, 320 703, 320 666, 256 629" fill="#d2d2d4" stroke="#83838a"></polygon><polygon points="320 703, 384 666, 384 629, 320 666" fill="#b8b8bb" stroke="#83838a"></polygon><polygon points="320 592, 256 629, 256 666, 320 703, 384 666, 384 629" fill="none" stroke="#000000" stroke-width="2"></polygon></g></g></g><g opacity="1"><g id="1189b367-b266-48d6-9582-b47488a98adc" transform="translate(0 0)"><svg x="-368" y="305" height="94" width="97" fill-rule="evenodd"><path d="M0 18.6v18.6l32.333 18.6h32.334L97 37.2V18.6L64.667 0H32.333L0 18.6z" fill="#ececed"></path><path d="M64.667 55.8L97 37.2v37.2L64.667 93V55.8z" fill="#b8b8bb"></path><path d="M32.333 55.8h32.334V93H32.333V55.8zM0 37.2v37.2L32.333 93V55.8L0 37.2z" fill="#d2d2d4"></path><g fill="none" stroke="#83838a" stroke-width="1.04"><path d="M.955 37.877L32.333 55.8h32.334l31.378-17.923M32.333 55.8v36.211M64.667 55.8v36.574"></path></g><path d="M97 18.6v55.8L64.667 93H32.333L0 74.4V18.6L32.333 0h32.334L97 18.6zM32.865 1.989L1.989 19.751v53.498l30.876 17.762h31.27l30.876-17.762V19.751L64.135 1.989h-31.27z" fill="#000000"></path><path d="M69.912 15.583c11.818 6.798 11.818 17.836 0 24.635-11.817 6.798-31.007 6.798-42.824 0-11.818-6.799-11.818-17.837 0-24.635 11.817-6.799 31.007-6.799 42.824 0z" fill="#4286c5"></path><path d="M49.584 14.774c1.824 1.049 1.824 2.753 0 3.802-1.824 1.05-4.786 1.05-6.61 0-1.824-1.049-1.824-2.753 0-3.802 1.824-1.05 4.786-1.05 6.61 0zM60.451 21.025c1.825 1.049 1.825 2.753 0 3.803-1.824 1.049-4.786 1.049-6.61 0-1.824-1.05-1.824-2.754 0-3.803s4.786-1.049 6.61 0zM71.319 27.276c1.824 1.05 1.824 2.754 0 3.803-1.825 1.049-4.787 1.049-6.611 0-1.824-1.049-1.824-2.753 0-3.803 1.824-1.049 4.786-1.049 6.611 0zM38.497 33.654c1.824 1.05 1.824 2.754 0 3.803-1.825 1.05-4.787 1.05-6.611 0-1.824-1.049-1.824-2.753 0-3.803 1.824-1.049 4.786-1.049 6.611 0z" fill="#ffffff"></path><path d="M47.458 15.878c.453.26.393.717-.133 1.02-.526.303-1.32.337-1.773.076-.452-.26-.392-.717.133-1.019.526-.303 1.321-.337 1.773-.077z" fill="#ffffff"></path><path d="M48.111 15.621c1.012.582 1.012 1.526 0 2.108-1.011.582-2.653.582-3.664 0-1.012-.582-1.012-1.526 0-2.108 1.011-.582 2.653-.582 3.664 0zM58.978 21.872c1.012.582 1.012 1.527 0 2.108-1.011.582-2.653.582-3.664 0-1.012-.581-1.012-1.526 0-2.108 1.011-.581 2.653-.581 3.664 0zM69.846 28.124c1.011.581 1.011 1.526 0 2.108-1.012.582-2.654.582-3.665 0-1.011-.582-1.011-1.527 0-2.108 1.011-.582 2.653-.582 3.665 0z" fill="#4286c5"></path><path d="M37.024 34.502c1.011.582 1.011 1.526 0 2.108-1.012.582-2.654.582-3.665 0-1.011-.582-1.011-1.526 0-2.108 1.011-.582 2.653-.582 3.665 0z" fill="#ffffff"></path><g fill="#ffffff"><path d="M52.301 25.172L37.719 33.56l.482.834 14.584-8.388-.484-.834z"></path><path d="M46.993 26.089l6.654-1.146-4.324 5.168c.189-1.691-.757-3.313-2.33-4.022z" stroke="#ffffff" stroke-width=".36"></path></g><g fill="#ffffff"><path d="M43.488 19.937l-6.057 13.797.886.387 6.056-13.798-.885-.386z"></path><path d="M39.76 23.812l4.676-4.854-.405 6.716c-.855-1.474-2.582-2.221-4.271-1.862z" stroke="#ffffff" stroke-width=".36"></path></g><g fill="#ffffff"><path d="M61.953 30.061l-23.985 3.483.14.955 23.985-3.486-.14-.952z"></path><path d="M56.68 28.957l6.608 1.387-5.936 3.209c.804-1.503.526-3.358-.672-4.596z" stroke="#ffffff" stroke-width=".36"></path></g><path d="M37.96 33.977l13.12-7.547M37.873 33.927l5.792-13.134M38.037 34.022l22.478-3.281" fill="#ffffff" stroke="#ffffff" stroke-width="1.93"></path></svg></g></g><g opacity="1"><g id="8bfb6321-f26b-485c-b365-f625a4ade06a" transform="translate(0 0)"><g><polygon points="-448 518, -384 555, -448 592, -512 555" fill="#ececed"></polygon><polygon points="-512 592, -448 629, -448 592, -512 555" fill="#d2d2d4" stroke="#83838a"></polygon><polygon points="-448 629, -384 592, -384 555, -448 592" fill="#b8b8bb" stroke="#83838a"></polygon><polygon points="-448 518, -512 555, -512 592, -448 629, -384 592, -384 555" fill="none" stroke="#000000" stroke-width="2"></polygon></g></g></g><g opacity="1"><g id="c30c818b-30af-42d0-a19f-c6f10d5e0fbb" transform="translate(0 0)"><svg x="-318" y="631" height="108.05" width="123" viewBox="0 0 32.544 28.588"><path d="M22.429 6.02v14.218l-7.873-4.318V1.474z" fill="#d2d2d4" fill-rule="evenodd" stroke="#83838a" stroke-width=".268"></path><path d="M32.28 2.228L22.428 6.02v14.219l9.85-8.531z" fill="#b8b8bb" fill-rule="evenodd" stroke="#83838a" stroke-width=".265"></path><path d="M22.429 6.02l-7.873-4.546L28.996.332l3.283 1.896z" fill="#ececed" fill-rule="evenodd" stroke="#83838a" stroke-width=".265"></path><path d="M32.28 11.707l-9.851 8.53-7.873-4.317V1.474L29.15.271l3.128 1.805z" fill="none" stroke="#000000" stroke-width=".529"></path><path d="M10.115 3.65l8.208 4.74L3.496 18.787.265 16.921z" fill="#ececed" fill-rule="evenodd" stroke="#83838a" stroke-width=".268"></path><path d="M18.323 8.39V22.61L3.547 28.296l-.051-9.509z" fill="#b8b8bb" fill-rule="evenodd" stroke="#83838a" stroke-width=".265"></path><path d="M3.496 18.787L.265 16.921V26.4l3.282 1.897z" fill="#d2d2d4" fill-rule="evenodd" stroke="#83838a" stroke-width=".265"></path><path d="M10.115 3.65l8.208 4.74V22.61L3.547 28.296.265 26.399v-9.478z" fill="none" stroke="#000000" stroke-width=".529"></path><path d="M25.138 11.636c.04-.936.518-2.03 1.107-2.494.075-.06.15-.105.221-.139.316-.872.808-1.669 1.363-2.106.838-.66 1.54-.282 1.707.836.592-.087.988.511.988 1.534 0 1.378-.71 3.053-1.585 3.742l-3.328 2.62c-.788.619-1.427.116-1.427-1.123 0-.964.389-2.112.954-2.87zm.473 3.244l3.328-2.62c.613-.482 1.11-1.654 1.11-2.619 0-.88-.414-1.282-.952-.98v-.018c0-1.102-.567-1.549-1.268-.998-.53.417-.983 1.286-1.172 2.161-.111-.062-.255-.04-.412.084-.35.276-.634.947-.634 1.497 0 .184.031.332.087.437a.976.976 0 0 0-.087.062c-.525.413-.951 1.419-.951 2.245 0 .827.426 1.162.95.749z" fill="#4286c5"></path></svg></g></g><g opacity="1"><g id="2e43fcef-b83a-4191-a31d-63cf1b5ae4a3" transform="translate(0 0)"><g><polygon points="-208 786, -144 823, -208 860, -272 823" fill="#ececed"></polygon><polygon points="-272 860, -208 897, -208 860, -272 823" fill="#d2d2d4" stroke="#83838a"></polygon><polygon points="-208 897, -144 860, -144 823, -208 860" fill="#b8b8bb" stroke="#83838a"></polygon><polygon points="-208 786, -272 823, -272 860, -208 897, -144 860, -144 823" fill="none" stroke="#000000" stroke-width="2"></polygon></g></g></g><g opacity="1"><g id="c1e4934e-a832-456e-b733-ac36578330ec" transform="translate(0 0)"><svg x="-819" y="453" height="115.695" width="100.625" viewBox="0 0 26.624 30.611"><path d="M13.312.306v15l12.99-7.5z" fill="#4286c5" fill-rule="evenodd"></path><path d="M.322 7.806l12.99 7.5v-15z" fill="#26527b" fill-rule="evenodd"></path><path d="M13.312.306v15" fill="none" stroke="#b7d1e9" stroke-width=".265"></path><path d="M13.312 15.306l12.99-7.5-6.495 18.75-6.495 3.75z" fill="#26527b" fill-rule="evenodd"></path><path d="M.322 7.806l12.99 7.5v15l-6.495-3.75z" fill="#326ca2" fill-rule="evenodd"></path><path d="M.322 7.806l12.99 7.5 12.99-7.5-12.99 7.5v15" fill="none" stroke="#deeaf5" stroke-width=".265"></path><path d="M13.312.306l-12.99 7.5 6.495 18.75 6.495 3.75 6.495-3.75 6.495-18.75z" fill="none" stroke="#000000" stroke-width=".529"></path></svg></g></g></g><g pointer-events="auto"></g><g pointer-events="auto"></g><g pointer-events="auto"><g opacity="1"><g id="6b28744a-209f-4cf9-9d66-4fd58050ba8c"><svg x="-576" y="555" overflow="visible"><text stroke="#ffffff" stroke-width="4" font-family="Open Sans" y="46.76" font-size="34pt" fill="#f5b720" font-weight="bold" transform="matrix(0.707 0.409 -0.707 0.409 0 0)" xml:space="preserve"><tspan x="8" dy="0">Exchange</tspan></text><text font-family="Open Sans" y="46.76" font-size="34pt" fill="#f5b720" font-weight="bold" transform="matrix(0.707 0.409 -0.707 0.409 0 0)" xml:space="preserve"><tspan x="8" dy="0">Exchange</tspan></text></svg></g></g><g opacity="1"><g id="770e8507-754a-4eee-aae8-3e01de44c1a2"><svg x="-256" y="296" overflow="visible"><text stroke="#ffffff" stroke-width="4" font-family="Open Sans" y="36.5" font-size="25pt" fill="#f5b720" font-weight="bold" transform="matrix(0.707 0.409 -0.707 0.409 0 0)" xml:space="preserve"><tspan x="8" dy="0">Stats</tspan></text><text font-family="Open Sans" y="36.5" font-size="25pt" fill="#f5b720" font-weight="bold" transform="matrix(0.707 0.409 -0.707 0.409 0 0)" xml:space="preserve"><tspan x="8" dy="0">Stats</tspan></text></svg></g></g><g opacity="1"><g id="4f495c5f-2058-43ef-a4db-dc22ab505999"><svg x="-128" y="222" overflow="visible"><text stroke="#ffffff" stroke-width="4" font-family="Open Sans" y="36.5" font-size="25pt" fill="#f5b720" font-weight="bold" transform="matrix(0.707 0.409 -0.707 0.409 0 0)" xml:space="preserve"><tspan x="8" dy="0">Stats</tspan></text><text font-family="Open Sans" y="36.5" font-size="25pt" fill="#f5b720" font-weight="bold" transform="matrix(0.707 0.409 -0.707 0.409 0 0)" xml:space="preserve"><tspan x="8" dy="0">Stats</tspan></text></svg></g></g><g opacity="1"><g id="14a1e21e-c2f6-4229-92e7-2cc569e4c11f"><svg x="-496" y="305" overflow="visible"><text stroke="#ffffff" stroke-width="4" font-family="Open Sans" y="46.76" font-size="34pt" fill="#f5b720" font-weight="bold" transform="matrix(0.707 0.409 -0.707 0.409 0 0)" xml:space="preserve"><tspan x="8" dy="0">stats.unrulymedia.com</tspan></text><text font-family="Open Sans" y="46.76" font-size="34pt" fill="#f5b720" font-weight="bold" transform="matrix(0.707 0.409 -0.707 0.409 0 0)" xml:space="preserve"><tspan x="8" dy="0">stats.unrulymedia.com</tspan></text></svg></g></g><g opacity="1"><g id="cad0c04a-3865-4bd6-af7a-5ebd2d554bd6" transform="translate(0 0)"><svg x="-576" y="352" overflow="visible"><text stroke="#ffffff" stroke-width="4" font-family="Open Sans" y="36.5" font-size="25pt" fill="#4286c5" font-weight="bold" transform="matrix(0.707 0.409 -0.707 0.409 0 0)" xml:space="preserve"><tspan x="8" dy="0">1000-1500</tspan><tspan x="8" dy="1.1em">events</tspan><tspan x="8" dy="1.1em">per second</tspan></text><text font-family="Open Sans" y="36.5" font-size="25pt" fill="#4286c5" font-weight="bold" transform="matrix(0.707 0.409 -0.707 0.409 0 0)" xml:space="preserve"><tspan x="8" dy="0">1000-1500</tspan><tspan x="8" dy="1.1em">events</tspan><tspan x="8" dy="1.1em">per second</tspan></text></svg></g></g><g opacity="1"><g id="a3eaa831-3802-4f1a-8ef3-6a5fd047fbe1"><svg x="0" y="518" overflow="visible"><text stroke="#ffffff" stroke-width="4" font-family="Open Sans" y="46.76" font-size="34pt" fill="#e91e63" font-weight="bold" transform="matrix(0.707 0.409 -0.707 0.409 0 0)" xml:space="preserve"><tspan x="8" dy="0">3rd Party</tspan><tspan x="8" dy="1.1em">Bidders</tspan></text><text font-family="Open Sans" y="46.76" font-size="34pt" fill="#e91e63" font-weight="bold" transform="matrix(0.707 0.409 -0.707 0.409 0 0)" xml:space="preserve"><tspan x="8" dy="0">3rd Party</tspan><tspan x="8" dy="1.1em">Bidders</tspan></text></svg></g></g><g opacity="1"><g id="61594666-22df-4383-870f-6c3b3c0093d5"><svg x="-384" y="685" overflow="visible"><text stroke="#ffffff" stroke-width="4" font-family="Open Sans" y="42.199999999999996" font-size="30pt" fill="#e91e63" font-weight="bold" transform="matrix(0.707 0.409 -0.707 0.409 0 0)" xml:space="preserve"><tspan x="8" dy="0">Internet</tspan><tspan x="8" dy="1.1em">Gateway</tspan></text><text font-family="Open Sans" y="42.199999999999996" font-size="30pt" fill="#e91e63" font-weight="bold" transform="matrix(0.707 0.409 -0.707 0.409 0 0)" xml:space="preserve"><tspan x="8" dy="0">Internet</tspan><tspan x="8" dy="1.1em">Gateway</tspan></text></svg></g></g><g opacity="1"><g id="5c189f1e-a60a-4d01-8795-ad7663b43f0e"><svg x="-816" y="546" overflow="visible"><text stroke="#ffffff" stroke-width="4" font-family="Open Sans" y="46.76" font-size="34pt" fill="#ffc107" font-weight="bold" transform="matrix(0.707 0.409 -0.707 0.409 0 0)" xml:space="preserve"><tspan x="8" dy="0">S3</tspan></text><text font-family="Open Sans" y="46.76" font-size="34pt" fill="#ffc107" font-weight="bold" transform="matrix(0.707 0.409 -0.707 0.409 0 0)" xml:space="preserve"><tspan x="8" dy="0">S3</tspan></text></svg></g></g><g opacity="1"><g id="f97ba1dc-d7a0-47a1-89c0-4860986e9257"><svg x="-288" y="851" overflow="visible"><text stroke="#ffffff" stroke-width="4" font-family="Open Sans" y="46.76" font-size="34pt" fill="#e91e63" font-weight="bold" transform="matrix(0.707 0.409 -0.707 0.409 0 0)" xml:space="preserve"><tspan x="8" dy="0">3rd Party</tspan><tspan x="8" dy="1.1em">Services</tspan></text><text font-family="Open Sans" y="46.76" font-size="34pt" fill="#e91e63" font-weight="bold" transform="matrix(0.707 0.409 -0.707 0.409 0 0)" xml:space="preserve"><tspan x="8" dy="0">3rd Party</tspan><tspan x="8" dy="1.1em">Services</tspan></text></svg></g></g><g opacity="1"><g id="a1a6884c-b446-4c7a-b767-5087a8021bb5" transform="translate(0 0)"><svg x="-32" y="611" overflow="visible"><text stroke="#ffffff" stroke-width="4" font-family="Open Sans" y="36.5" font-size="25pt" fill="#4286c5" font-weight="bold" transform="matrix(0.707 0.409 -0.707 0.409 0 0)" xml:space="preserve"><tspan x="8" dy="0">500-1000</tspan><tspan x="8" dy="1.1em">bid requests</tspan><tspan x="8" dy="1.1em">per second</tspan></text><text font-family="Open Sans" y="36.5" font-size="25pt" fill="#4286c5" font-weight="bold" transform="matrix(0.707 0.409 -0.707 0.409 0 0)" xml:space="preserve"><tspan x="8" dy="0">500-1000</tspan><tspan x="8" dy="1.1em">bid requests</tspan><tspan x="8" dy="1.1em">per second</tspan></text></svg></g></g><g opacity="1"><g id="7303d7b3-4750-4ccf-a9b3-c2a09a63e712" transform="translate(0 0)"><svg x="-128" y="722" overflow="visible"><text stroke="#ffffff" stroke-width="4" font-family="Open Sans" y="36.5" font-size="25pt" fill="#4286c5" font-weight="bold" transform="matrix(0.707 0.409 -0.707 0.409 0 0)" xml:space="preserve"><tspan x="8" dy="0">25-50</tspan><tspan x="8" dy="1.1em">connections</tspan><tspan x="8" dy="1.1em">per second</tspan></text><text font-family="Open Sans" y="36.5" font-size="25pt" fill="#4286c5" font-weight="bold" transform="matrix(0.707 0.409 -0.707 0.409 0 0)" xml:space="preserve"><tspan x="8" dy="0">25-50</tspan><tspan x="8" dy="1.1em">connections</tspan><tspan x="8" dy="1.1em">per second</tspan></text></svg></g></g><g opacity="1"><g id="f897a545-f46f-4b13-81c8-be642339e292"><svg x="0" y="148" overflow="visible"><text stroke="#ffffff" stroke-width="4" font-family="Open Sans" y="36.5" font-size="25pt" fill="#f5b720" font-weight="bold" transform="matrix(0.707 0.409 -0.707 0.409 0 0)" xml:space="preserve"><tspan x="8" dy="0">Stats</tspan></text><text font-family="Open Sans" y="36.5" font-size="25pt" fill="#f5b720" font-weight="bold" transform="matrix(0.707 0.409 -0.707 0.409 0 0)" xml:space="preserve"><tspan x="8" dy="0">Stats</tspan></text></svg></g></g></g><g></g></g></svg>