<?xml version="1.0" standalone="no"?>
<!DOCTYPE svg PUBLIC "-//W3C//DTD SVG 1.1//EN"
  "http://www.w3.org/Graphics/SVG/1.1/DTD/svg11.dtd">
<svg version="1.1" xmlns="http://www.w3.org/2000/svg" xmlns:xlink="http://www.w3.org/1999/xlink" width="1792" height="1063" viewBox="-992 -32 1792 1063" id="ccdiagram"><filter id="grayscale"><feColorMatrix type="matrix" values="0.3333 0.3333 0.3333 0 0 0.3333 0.3333 0.3333 0 0 0.3333 0.3333 0.3333 0 0 0 0 0 1 0"></feColorMatrix></filter><defs><style type="text/css">@import url('https://fonts.googleapis.com/css?family=Open+Sans:400,700|Inconsolata:400');</style></defs><g><g style="pointer-events: none;"><g><pattern id="gridPatternMinor" x="0" y="37" width="128" height="74" patternUnits="userSpaceOnUse"><path d="M 0 0 L 128 74" stroke="#eee" stroke-width="1"></path><path d="M 128 0 L 0 74" stroke="#eee" stroke-width="1"></path></pattern><polygon points="0 0, 768 444, -192 999, -960 555" fill="url(#gridPatternMinor)"></polygon></g><polygon points="-960 555, -960 565, -192 1009, -192 999" stroke-linejoin="round" stroke="#54626f" stroke-width="1" fill="#f9f9f9"></polygon><polygon points="-192 1009, 768 454, 768 444, -192 999" stroke-linejoin="round" stroke="#54626f" stroke-width="1" fill="#e2e2e2"></polygon></g><g pointer-events="auto"><g opacity="1"><g><g><polygon points="-640 389, 64 796, 64 833, -32 888, -32 888, -128 944, -192 944, -896 537, -896 500, -704 389" fill="#a3c6e8" stroke-width="2" stroke="#818181"></polygon><polygon points="-672 407, 32 814, -64 870, -160 925, -864 518" fill="#e6e7e8" stroke-width="0" stroke="#818181"></polygon></g></g></g></g><g style="pointer-events: none;"><g><pattern id="gridPatternMajor" x="0" y="37" width="128" height="74" patternUnits="userSpaceOnUse"><path d="M 64 0 L 128 37 64 74 0 37 z" stroke="#54626f" stroke-width="1" fill="none"></path></pattern><polygon points="0 0, 768 444, -192 999, -960 555" fill="url(#gridPatternMajor)"></polygon></g></g><g pointer-events="auto"></g><g></g><g pointer-events="auto"></g><g></g><g pointer-events="auto"></g><g pointer-events="none"></g><g pointer-events="auto"><g><g cursor="cell"><line x1="-288" y1="685" x2="-337" y2="460" stroke="red" stroke-width="9" opacity="0"></line><line x1="-288" y1="685" x2="-337" y2="460" stroke="#8ed1fc" stroke-width="3" stroke-dasharray="9,6.75" stroke-linecap="butt"></line><polygon points="-339 451, -349 468, -337 463, -323 466, -339 451" stroke-linejoin="round" fill="#8ed1fc" stroke="#8ed1fc" stroke-width="1"></polygon></g></g><g><g cursor="cell"><line x1="-176" y1="379" x2="-334" y2="354" stroke="red" stroke-width="11" opacity="0"></line><line x1="-176" y1="379" x2="-334" y2="354" stroke="#4286c5" stroke-width="5" stroke-linecap="round"></line><polygon points="-352 352, -324 365, -329 355, -315 348, -352 352" stroke-linejoin="round" fill="#4286c5" stroke="#4286c5" stroke-width="1"></polygon></g></g><g><g cursor="cell"><line x1="-256" y1="703" x2="-288" y2="685" stroke="red" stroke-width="9" opacity="0"></line><line x1="-256" y1="703" x2="-288" y2="685" stroke="#8ed1fc" stroke-width="3" stroke-dasharray="9,6.75" stroke-linecap="butt"></line></g></g><g><g cursor="cell"><line x1="-17" y1="471" x2="-96" y2="426" stroke="red" stroke-width="14" opacity="0"></line><line x1="-17" y1="471" x2="-96" y2="426" stroke="#4286c5" stroke-width="8" stroke-linecap="round"></line><polygon points="0 481, -16 455, -22 468, -45 472, 0 481" stroke-linejoin="round" fill="#4286c5" stroke="#4286c5" stroke-width="1"></polygon></g></g><g><g cursor="cell"><line x1="-448" y1="592" x2="-480" y2="574" stroke="red" stroke-width="12" opacity="0"></line><line x1="-448" y1="592" x2="-480" y2="574" stroke="#4286c5" stroke-width="6" stroke-linecap="round"></line></g></g><g><g cursor="cell"><line x1="-160" y1="796" x2="-335" y2="460" stroke="red" stroke-width="9" opacity="0"></line><line x1="-160" y1="796" x2="-335" y2="460" stroke="#8ed1fc" stroke-width="3" stroke-dasharray="9,6.75" stroke-linecap="butt"></line><polygon points="-339 451, -344 469, -333 462, -319 465, -339 451" stroke-linejoin="round" fill="#8ed1fc" stroke="#8ed1fc" stroke-width="1"></polygon></g></g><g><g cursor="cell"><line x1="-480" y1="574" x2="-375" y2="462" stroke="red" stroke-width="12" opacity="0"></line><line x1="-480" y1="574" x2="-375" y2="462" stroke="#4286c5" stroke-width="6" stroke-linecap="round"></line><polygon points="-365 451, -398 465, -377 465, -367 475, -365 451" stroke-linejoin="round" fill="#4286c5" stroke="#4286c5" stroke-width="1"></polygon></g></g><g><g cursor="cell"><line x1="96" y1="537" x2="174" y2="582" stroke="red" stroke-width="15" opacity="0"></line><line x1="96" y1="537" x2="174" y2="582" stroke="#4286c5" stroke-width="9" stroke-linecap="round"></line><polygon points="192 592, 175 564, 169 578, 144 582, 192 592" stroke-linejoin="round" fill="#4286c5" stroke="#4286c5" stroke-width="1"></polygon></g></g><g><g cursor="cell"><line x1="-192" y1="814" x2="-160" y2="796" stroke="red" stroke-width="9" opacity="0"></line><line x1="-192" y1="814" x2="-160" y2="796" stroke="#8ed1fc" stroke-width="3" stroke-dasharray="9,6.75" stroke-linecap="butt"></line></g></g><g><g cursor="cell"><line x1="-640" y1="481" x2="-380" y2="453" stroke="red" stroke-width="9" opacity="0"></line><line x1="-640" y1="481" x2="-380" y2="453" stroke="#8ed1fc" stroke-width="3" stroke-dasharray="9,6.75" stroke-linecap="butt"></line><polygon points="-365 451, -394 447, -384 453, -390 462, -365 451" stroke-linejoin="round" fill="#8ed1fc" stroke="#8ed1fc" stroke-width="1"></polygon></g></g></g><g pointer-events="auto"><g opacity="1"><g id="5d1aff98-8a0b-46d4-8f18-de6d16345be3" transform="translate(0 0)"><svg x="-176" y="321" height="113.438" width="96" viewBox="0 0 25.4 30.014"><g transform="translate(412.599 -86.957)"><path d="M-412.333 102.348v4.786l8.29 4.785h8.289l8.29-4.785v-4.786l-8.29-4.786h-8.29z" fill="#3c3c3c" fill-rule="evenodd"></path><path d="M-395.754 111.92l8.29-4.786v4.785l-8.29 4.786z" fill="#090909" fill-rule="evenodd"></path><path d="M-404.044 111.92h8.29v4.785h-8.29z" fill="#232323" fill-rule="evenodd"></path><path d="M-412.333 107.134v4.785l8.29 4.786v-4.786z" fill="#232323" fill-rule="evenodd"></path><path d="M-412.333 107.134l8.29 4.785h8.289l8.29-4.785M-404.044 111.92v4.785M-395.754 111.92v4.785" fill="none" stroke="#a2a2a2" stroke-width=".26588"></path><path d="M-412.333 102.348v9.571l8.29 4.786h8.289l8.29-4.786v-9.571l-8.29-4.786h-8.29z" fill="none" stroke="#000000" stroke-width=".53176"></path><path d="M-412.333 97.178v4.786l8.29 4.786h8.289l8.29-4.786v-4.786l-8.29-4.786h-8.29z" fill="#3c3c3c" fill-rule="evenodd"></path><path d="M-395.754 106.75l8.29-4.786v4.786l-8.29 4.786z" fill="#090909" fill-rule="evenodd"></path><path d="M-404.044 106.75h8.29v4.786h-8.29z" fill="#232323" fill-rule="evenodd"></path><path d="M-412.333 101.964v4.786l8.29 4.786v-4.786z" fill="#232323" fill-rule="evenodd"></path><path d="M-412.333 101.964l8.29 4.786h8.289l8.29-4.786M-404.044 106.75v4.786M-395.754 106.75v4.786" fill="none" stroke="#a2a2a2" stroke-width=".266"></path><path d="M-412.333 97.178v9.572l8.29 4.786h8.289l8.29-4.786v-9.572l-8.29-4.786h-8.29z" fill="none" stroke="#000000" stroke-width=".532"></path><path d="M-412.333 92.01v4.785l8.29 4.786h8.289l8.29-4.786v-4.786l-8.29-4.786h-8.29z" fill="#3c3c3c" fill-rule="evenodd"></path><path d="M-395.754 101.58l8.29-4.785v4.786l-8.29 4.786z" fill="#090909" fill-rule="evenodd"></path><path d="M-404.044 101.58h8.29v4.787h-8.29z" fill="#232323" fill-rule="evenodd"></path><path d="M-412.333 96.795v4.786l8.29 4.786v-4.786z" fill="#232323" fill-rule="evenodd"></path><path d="M-412.333 96.795l8.29 4.786h8.289l8.29-4.786M-404.044 101.58v4.787M-395.754 101.58v4.787" fill="none" stroke="#a2a2a2" stroke-width=".266"></path><path d="M-412.333 92.01v9.57l8.29 4.787h8.289l8.29-4.786v-9.572l-8.29-4.786h-8.29z" fill="none" stroke="#000000" stroke-width=".532"></path><circle cx="-136.478" cy="325.284" fill="#f4b934" r="5.801" transform="scale(1.22475 .7071) rotate(45)"></circle><g font-family="sans-serif" font-size="3.191" stroke-width=".266" style="line-height: 0%;"><path d="M-399.242 93.57l.48-.601q.222-.275.177-.448-.04-.17-.467-.416l-.507-.293 1.065-.614.937.541q.825.476.92.934.1.46-.417 1.114l-3.452 4.39-1.622-.937 1.654-2.121-3.729.923-1.622-.936z" fill="#ffffff" font-family="Droid Serif" font-size="9.971" style="line-height: 1.25;"></path></g></g></svg></g></g><g opacity="1"><g id="b315b453-cc63-4f81-bdf3-d2a5f5e5b185" transform="translate(0 0)"><svg x="0" y="444" height="111" width="128" fill-rule="evenodd"><path d="M64 74v37l64-37V37L64 74z" fill="#b8b8bb"></path><path d="M0 37v37l64 37V74L0 37z" fill="#d2d2d4"></path><path d="M0 37L64 0l64 37-64 37L0 37z" fill="#ececed"></path><path d="M64 73.407l62.111-35.86.514.889-62.487 36.078h-.276L.743 38.072l.514-.89L64 73.407z" fill="#83838a"></path><path d="M63.486 74h1.027v36h-1.027z" fill="#83838a"></path><path d="M128 37v37l-64 37L0 74V37L64 0l64 37zM2.054 38.185v34.63L64 108.627l61.946-35.812v-34.63L64 2.373 2.054 38.185z" fill="#000000"></path></svg></g></g><g opacity="1"><g id="adc7aa61-8ee9-457b-9468-e78aed4be8ae" transform="translate(0 0)"><svg x="192" y="528" height="137.556" width="128" viewBox="0 0 33.867 36.395"><g fill="#4286c5" font-family="sans-serif" font-size="3.175" stroke-width=".265" style="line-height: 0%;"><path d="M.187 12.17v14.365l16.586 9.577V21.747l-4.146-7.183-8.293-4.787z" fill="#d2d2d4"></path><path d="M20.955 14.564l8.292-4.787 4.147 2.394v14.364l-16.587 9.576V21.748z" fill="#b8b8bb"></path><path d="M4.334 9.777l8.292 4.788h8.293l8.293-4.788V4.988L20.919.2h-8.293L4.334 4.988zM12.856 14.565h8.294l-4.147 7.182z" fill="#ececed"></path><path d="M4.394 4.806v4.789L.247 11.988zM29.212 9.595v-4.79l4.146 7.183z" fill="#d2d2d4"></path><path d="M208.47 90.288l4.345-4.346 4.346 8.693z" fill="none" stroke="#83838a" stroke-width=".264" transform="scale(1.34943 .77909) rotate(45 195.366 -185.783)"></path><path d="M199.734 94.678l13.037 13.037h17.383L217.117 94.68l-8.692-4.347h-8.69zM212.819 85.928v-8.69h4.345l13.037 13.037.001 17.382-13.037-13.037zM199.734 90.333h8.69l4.347-4.346v-8.69l-4.347-4.347h-8.69l-4.346 4.346v8.69z" fill="none" stroke="#83838a" stroke-width=".257" transform="scale(1.34943 .77909) rotate(45 195.366 -185.783)"></path><path d="M212.855 107.631l-13.037-13.037-4.346-8.692v-8.69l4.346-4.347h8.69l8.692 4.346 13.038 13.038v17.383z" fill="none" stroke="#000000" stroke-width=".514" transform="scale(1.34943 .77909) rotate(45 195.366 -185.783)"></path><path d="M10.6 9.65l5.492-5.978-.062-.036q-2.286 1.471-3.094 1.938L8.238 8.286 6.325 7.18l10.099-5.83 2.915 1.682-5.333 5.84.042.023 10.258-2.995 2.915 1.683-10.1 5.83-1.996-1.152 4.78-2.76q.339-.195.788-.447.456-.247 2.445-1.3l-.062-.036-10.514 3.063z" font-family="Open Sans" font-size="14.883" style="line-height: 1.25;"></path></g></svg></g></g><g opacity="1"><g id="cbb49a7a-648c-4293-b6d2-2773e6535fc1" transform="translate(0 0)"><svg x="-403" y="342" height="115.695" width="100.625" viewBox="0 0 26.624 30.611"><path d="M13.312.306v15l12.99-7.5z" fill="#4286c5" fill-rule="evenodd"></path><path d="M.322 7.806l12.99 7.5v-15z" fill="#26527b" fill-rule="evenodd"></path><path d="M13.312.306v15" fill="none" stroke="#b7d1e9" stroke-width=".265"></path><path d="M13.312 15.306l12.99-7.5-6.495 18.75-6.495 3.75z" fill="#26527b" fill-rule="evenodd"></path><path d="M.322 7.806l12.99 7.5v15l-6.495-3.75z" fill="#326ca2" fill-rule="evenodd"></path><path d="M.322 7.806l12.99 7.5 12.99-7.5-12.99 7.5v15" fill="none" stroke="#deeaf5" stroke-width=".265"></path><path d="M13.312.306l-12.99 7.5 6.495 18.75 6.495 3.75 6.495-3.75 6.495-18.75z" fill="none" stroke="#000000" stroke-width=".529"></path></svg></g></g><g opacity="1"><g id="9fafd6f8-4fb6-4648-8d06-ebd02455c437" transform="translate(0 0)"><svg x="-768" y="444" height="111" width="128" fill-rule="evenodd"><path d="M64 74v37l64-37V37L64 74z" fill="#b8b8bb"></path><path d="M0 37v37l64 37V74L0 37z" fill="#d2d2d4"></path><path d="M0 37L64 0l64 37-64 37L0 37z" fill="#ececed"></path><path d="M64 73.407l62.111-35.86.514.889-62.487 36.078h-.276L.743 38.072l.514-.89L64 73.407z" fill="#83838a"></path><path d="M63.486 74h1.027v36h-1.027z" fill="#83838a"></path><path d="M128 37v37l-64 37L0 74V37L64 0l64 37zM2.054 38.185v34.63L64 108.627l61.946-35.812v-34.63L64 2.373 2.054 38.185z" fill="#000000"></path></svg></g></g><g opacity="1"><g id="9683cd42-4bf8-4114-87ee-e842167ef9dd" transform="translate(0 0)"><svg x="-576" y="555" height="111" width="128" fill-rule="evenodd"><path d="M64 74v37l64-37V37L64 74z" fill="#b8b8bb"></path><path d="M0 37v37l64 37V74L0 37z" fill="#d2d2d4"></path><path d="M0 37L64 0l64 37-64 37L0 37z" fill="#ececed"></path><path d="M64 73.407l62.111-35.86.514.889-62.487 36.078h-.276L.743 38.072l.514-.89L64 73.407z" fill="#83838a"></path><path d="M63.486 74h1.027v36h-1.027z" fill="#83838a"></path><path d="M128 37v37l-64 37L0 74V37L64 0l64 37zM2.054 38.185v34.63L64 108.627l61.946-35.812v-34.63L64 2.373 2.054 38.185z" fill="#000000"></path></svg></g></g><g opacity="1"><g id="1c17c47a-35cd-4e2b-8a6b-810aa9be8f67" transform="translate(0 0)"><svg x="-384" y="666" height="111" width="128" fill-rule="evenodd"><path d="M64 74v37l64-37V37L64 74z" fill="#b8b8bb"></path><path d="M0 37v37l64 37V74L0 37z" fill="#d2d2d4"></path><path d="M0 37L64 0l64 37-64 37L0 37z" fill="#ececed"></path><path d="M64 73.407l62.111-35.86.514.889-62.487 36.078h-.276L.743 38.072l.514-.89L64 73.407z" fill="#83838a"></path><path d="M63.486 74h1.027v36h-1.027z" fill="#83838a"></path><path d="M128 37v37l-64 37L0 74V37L64 0l64 37zM2.054 38.185v34.63L64 108.627l61.946-35.812v-34.63L64 2.373 2.054 38.185z" fill="#000000"></path></svg></g></g><g opacity="1"><g id="d5dd50d9-55ed-4206-9928-75b645638ae4" transform="translate(0 0)"><svg x="-192" y="777" height="111" width="128" fill-rule="evenodd"><path d="M64 74v37l64-37V37L64 74z" fill="#b8b8bb"></path><path d="M0 37v37l64 37V74L0 37z" fill="#d2d2d4"></path><path d="M0 37L64 0l64 37-64 37L0 37z" fill="#ececed"></path><path d="M64 73.407l62.111-35.86.514.889-62.487 36.078h-.276L.743 38.072l.514-.89L64 73.407z" fill="#83838a"></path><path d="M63.486 74h1.027v36h-1.027z" fill="#83838a"></path><path d="M128 37v37l-64 37L0 74V37L64 0l64 37zM2.054 38.185v34.63L64 108.627l61.946-35.812v-34.63L64 2.373 2.054 38.185z" fill="#000000"></path></svg></g></g></g><g pointer-events="auto"></g><g pointer-events="auto"><g opacity="1"><g id="c86b8b7a-2e03-4148-b8ff-d8085f960d05" transform="translate(0 0)"><svg x="-352" y="352" overflow="visible"><g transform="scale(1.7469281074217107) matrix(0.707 0.409 -0.707 0.409 0 0)"><circle cx="0" cy="0" fill="#ffc107" r="23"></circle><svg width="27" height="32" x="-13.5" y="-16" style="fill: rgb(255, 255, 255);"><svg xmlns="http://www.w3.org/2000/svg" width="27" height="32" viewBox="0 0 27 32"><path d="M26.214 6.786c.661.661 1.214 1.982 1.214 2.929v20.571c0 .946-.768 1.714-1.714 1.714h-24A1.715 1.715 0 0 1 0 30.286V1.715C0 .769.768.001 1.714.001h16c.946 0 2.268.554 2.929 1.214zm-7.928-4.357v6.714H25c-.107-.304-.268-.607-.393-.732l-5.589-5.589c-.125-.125-.429-.286-.732-.393zm6.857 27.285V11.428h-7.429A1.715 1.715 0 0 1 16 9.714V2.285H2.286v27.429h22.857zM6.857 14.286c0-.321.25-.571.571-.571h12.571c.321 0 .571.25.571.571v1.143c0 .321-.25.571-.571.571H7.428a.564.564 0 0 1-.571-.571v-1.143zm13.143 4c.321 0 .571.25.571.571V20c0 .321-.25.571-.571.571H7.429A.564.564 0 0 1 6.858 20v-1.143c0-.321.25-.571.571-.571H20zm0 4.571c.321 0 .571.25.571.571v1.143c0 .321-.25.571-.571.571H7.429a.564.564 0 0 1-.571-.571v-1.143c0-.321.25-.571.571-.571H20z"></path></svg></svg></g></svg></g></g></g><g pointer-events="auto"><g opacity="1"><g id="f81230cb-a34b-473e-82d8-289672686cc1"><svg x="-608" y="611" overflow="visible"><text stroke="#ffffff" stroke-width="4" font-family="Open Sans" y="36.5" font-size="25pt" fill="#f5b720" font-weight="bold" transform="matrix(0.707 0.409 -0.707 0.409 0 0)" xml:space="preserve"><tspan x="8" dy="0">Exchange</tspan><tspan x="8" dy="1.1em"> </tspan></text><text font-family="Open Sans" y="36.5" font-size="25pt" fill="#f5b720" font-weight="bold" transform="matrix(0.707 0.409 -0.707 0.409 0 0)" xml:space="preserve"><tspan x="8" dy="0">Exchange</tspan><tspan x="8" dy="1.1em"> </tspan></text></svg></g></g><g opacity="1"><g id="c82479b7-65d9-424e-b1fb-a7a02076786e"><svg x="-416" y="426" overflow="visible"><text stroke="#ffffff" stroke-width="4" font-family="Open Sans" y="36.5" font-size="25pt" fill="#f5b720" font-weight="bold" transform="matrix(0.707 0.409 -0.707 0.409 0 0)" xml:space="preserve"><tspan x="8" dy="0">S3</tspan></text><text font-family="Open Sans" y="36.5" font-size="25pt" fill="#f5b720" font-weight="bold" transform="matrix(0.707 0.409 -0.707 0.409 0 0)" xml:space="preserve"><tspan x="8" dy="0">S3</tspan></text></svg></g></g><g opacity="1"><g id="03501860-f9e7-46e4-abbd-ae9887f2a50a"><svg x="160" y="611" overflow="visible"><text stroke="#ffffff" stroke-width="4" font-family="Open Sans" y="36.5" font-size="25pt" fill="#f5b720" font-weight="bold" transform="matrix(0.707 0.409 -0.707 0.409 0 0)" xml:space="preserve"><tspan x="8" dy="0">RDS</tspan></text><text font-family="Open Sans" y="36.5" font-size="25pt" fill="#f5b720" font-weight="bold" transform="matrix(0.707 0.409 -0.707 0.409 0 0)" xml:space="preserve"><tspan x="8" dy="0">RDS</tspan></text></svg></g></g><g opacity="1"><g id="0b09de5a-4b80-4319-99bf-76c70b5cc809"><svg x="-16" y="509" overflow="visible"><text stroke="#ffffff" stroke-width="4" font-family="Open Sans" y="36.5" font-size="25pt" fill="#f5b720" font-weight="bold" transform="matrix(0.707 0.409 -0.707 0.409 0 0)" xml:space="preserve"><tspan x="8" dy="0">SSP API</tspan></text><text font-family="Open Sans" y="36.5" font-size="25pt" fill="#f5b720" font-weight="bold" transform="matrix(0.707 0.409 -0.707 0.409 0 0)" xml:space="preserve"><tspan x="8" dy="0">SSP API</tspan></text></svg></g></g><g opacity="1"><g id="92391bec-71bf-4e7b-86a4-3d50ae696634"><svg x="-800" y="500" overflow="visible"><text stroke="#ffffff" stroke-width="4" font-family="Open Sans" y="36.5" font-size="25pt" fill="#f5b720" font-weight="bold" transform="matrix(0.707 0.409 -0.707 0.409 0 0)" xml:space="preserve"><tspan x="8" dy="0">Exchange</tspan></text><text font-family="Open Sans" y="36.5" font-size="25pt" fill="#f5b720" font-weight="bold" transform="matrix(0.707 0.409 -0.707 0.409 0 0)" xml:space="preserve"><tspan x="8" dy="0">Exchange</tspan></text></svg></g></g><g opacity="1"><g id="89ad873c-c595-436a-9537-01a3c0a8ba3d"><svg x="-416" y="722" overflow="visible"><text stroke="#ffffff" stroke-width="4" font-family="Open Sans" y="36.5" font-size="25pt" fill="#f5b720" font-weight="bold" transform="matrix(0.707 0.409 -0.707 0.409 0 0)" xml:space="preserve"><tspan x="8" dy="0">Exchange</tspan></text><text font-family="Open Sans" y="36.5" font-size="25pt" fill="#f5b720" font-weight="bold" transform="matrix(0.707 0.409 -0.707 0.409 0 0)" xml:space="preserve"><tspan x="8" dy="0">Exchange</tspan></text></svg></g></g><g opacity="1"><g id="f6d29044-f3bc-4f85-851b-fb21d5929634"><svg x="-224" y="833" overflow="visible"><text stroke="#ffffff" stroke-width="4" font-family="Open Sans" y="36.5" font-size="25pt" fill="#f5b720" font-weight="bold" transform="matrix(0.707 0.409 -0.707 0.409 0 0)" xml:space="preserve"><tspan x="8" dy="0">Exchange...</tspan></text><text font-family="Open Sans" y="36.5" font-size="25pt" fill="#f5b720" font-weight="bold" transform="matrix(0.707 0.409 -0.707 0.409 0 0)" xml:space="preserve"><tspan x="8" dy="0">Exchange...</tspan></text></svg></g></g><g opacity="1"><g id="3ce7c945-62e4-4de7-a9d4-adb05a25ace9" transform="translate(0 0)"><svg x="-608" y="407" overflow="visible"><text stroke="#ffffff" stroke-width="4" font-family="Open Sans" y="36.5" font-size="25pt" fill="#f5b720" font-weight="bold" transform="matrix(0.707 0.409 -0.707 0.409 0 0)" xml:space="preserve"><tspan x="8" dy="0">US Region</tspan></text><text font-family="Open Sans" y="36.5" font-size="25pt" fill="#f5b720" font-weight="bold" transform="matrix(0.707 0.409 -0.707 0.409 0 0)" xml:space="preserve"><tspan x="8" dy="0">US Region</tspan></text></svg></g></g><g opacity="1"><g id="e020b5bf-af64-4ba0-b4a1-a309340876a3"><svg x="-352" y="278" overflow="visible"><text stroke="#ffffff" stroke-width="4" font-family="Open Sans" y="36.5" font-size="25pt" fill="#f5b720" font-weight="bold" transform="matrix(0.707 0.409 -0.707 0.409 0 0)" xml:space="preserve"><tspan x="8" dy="0">Site Details</tspan></text><text font-family="Open Sans" y="36.5" font-size="25pt" fill="#f5b720" font-weight="bold" transform="matrix(0.707 0.409 -0.707 0.409 0 0)" xml:space="preserve"><tspan x="8" dy="0">Site Details</tspan></text></svg></g></g><g opacity="1"><g id="300ab57d-038d-4f4d-9535-349c0b5458bc" transform="translate(0 0)"><svg x="-192" y="407" overflow="visible"><text stroke="#ffffff" stroke-width="4" font-family="Open Sans" y="36.5" font-size="25pt" fill="#f5b720" font-weight="bold" transform="matrix(0.707 0.409 -0.707 0.409 0 0)" xml:space="preserve"><tspan x="8" dy="0">Scheduled</tspan><tspan x="8" dy="1.1em">Refresh</tspan></text><text font-family="Open Sans" y="36.5" font-size="25pt" fill="#f5b720" font-weight="bold" transform="matrix(0.707 0.409 -0.707 0.409 0 0)" xml:space="preserve"><tspan x="8" dy="0">Scheduled</tspan><tspan x="8" dy="1.1em">Refresh</tspan></text></svg></g></g></g><g></g></g></svg>